<?xml version="1.0" encoding="UTF-8"?>
<svg width="64px" height="64px" viewBox="0 0 64 64" version="1.1" xmlns="http://www.w3.org/2000/svg" xmlns:xlink="http://www.w3.org/1999/xlink">
    <!-- Generator: Sketch 48.2 (47327) - http://www.bohemiancoding.com/sketch -->
    <title>Group 19 Copy 3</title>
    <desc>Created with Sketch.</desc>
    <defs></defs>
    <g id="Original-Default-State" stroke="none" stroke-width="1" fill="none" fill-rule="evenodd">
        <path d="M17.047619,0 C15.359248,0 14,1.35924571 14,3.04761905 L14,60.952381 C14,62.6407619 15.359248,64 17.047619,64 L47.5238095,64 C49.2121806,64 50.5714286,62.6407619 50.5714286,60.952381 L50.5714286,3.04761905 C50.5714286,1.35924571 49.2121806,0 47.5238095,0 L17.047619,0 Z M18.5714286,4.57142857 L46,4.57142857 L46,50.2857143 L18.5714286,50.2857143 L18.5714286,4.57142857 Z M32.2857143,54.0952381 C33.9688686,54.0952381 35.3333333,55.4596571 35.3333333,57.1428571 C35.3333333,58.825981 33.9688663,60.1904762 32.2857143,60.1904762 C30.60256,60.1904762 29.2380952,58.825981 29.2380952,57.1428571 C29.2380952,55.4596571 30.60256,54.0952381 32.2857143,54.0952381 Z" id="Shape-Copy" fill="#FFFFFF" fill-rule="nonzero"></path>
    </g>
</svg>