<?xml version="1.0" encoding="UTF-8"?>
<svg width="64px" height="64px" viewBox="0 0 64 64" version="1.1" xmlns="http://www.w3.org/2000/svg" xmlns:xlink="http://www.w3.org/1999/xlink">
    <!-- Generator: Sketch 48.2 (47327) - http://www.bohemiancoding.com/sketch -->
    <title>Group 15 Copy 4</title>
    <desc>Created with Sketch.</desc>
    <defs></defs>
    <g id="Original-Default-State" stroke="none" stroke-width="1" fill="none" fill-rule="evenodd">
        <path d="M60.32,23.04 L4,23.04 L9.12,17.92 L11.68,17.92 C11.68,9.472 18.592,2.56 27.04,2.56 C27.04,1.10933333 28.1493333,0 29.6,0 L34.72,0 C36.1706667,0 37.28,1.10933333 37.28,2.56 C45.728,2.56 52.64,9.472 52.64,17.92 L55.2,17.92 L60.32,23.04 Z M37.28,17.92 L50.08,17.92 C50.08,10.8373333 44.3626667,5.12 37.28,5.12 L37.28,17.92 Z M27.04,17.92 L27.04,5.12 C19.9573333,5.12 14.24,10.8373333 14.24,17.92 L27.04,17.92 Z" id="Shape" fill="#FFFFFF" fill-rule="nonzero"></path>
        <path d="M60.32,25.6 L60.32,46.08 L52.64,46.08 C52.64,53.76 37.28,64 32.16,64 C27.04,64 11.68,53.76 11.68,46.08 L4,46.08 L4,25.6 L60.32,25.6 Z M50.08,46.08 L14.24,46.08 C14.24,52.48 28.32,61.44 32.16,61.44 C36,61.44 50.08,52.48 50.08,46.08 Z" id="Shape" fill="#FFFFFF" fill-rule="nonzero"></path>
    </g>
</svg>