<?xml version="1.0" encoding="UTF-8"?>
<svg width="64px" height="64px" viewBox="0 0 64 64" version="1.1" xmlns="http://www.w3.org/2000/svg" xmlns:xlink="http://www.w3.org/1999/xlink">
    <!-- Generator: Sketch 48.2 (47327) - http://www.bohemiancoding.com/sketch -->
    <title>Group 17 Copy</title>
    <desc>Created with Sketch.</desc>
    <defs></defs>
    <g id="Original-Default-State" stroke="none" stroke-width="1" fill="none" fill-rule="evenodd">
        <path d="M60.1435145,24.4194697 L46.1972244,3.5000345 L17.8027756,3.5000345 L3.85648547,24.4194697 L32,59.5988629 L60.1435145,24.4194697 Z M30.8286933,62.9370771 L0.828696748,25.4370771 C0.420635588,24.9270006 0.389585166,24.2114933 0.75192453,23.6679842 L15.7519228,1.16798421 C16.0301215,0.750686203 16.4984684,0.5000345 16.9999981,0.5000345 L46.9999947,0.5000345 C47.5015244,0.5000345 47.9698714,0.750686203 48.24807,1.16798421 L63.2480683,23.6679842 C63.6104077,24.2114933 63.5793572,24.9270006 63.1712961,25.4370771 L33.1712995,62.9370771 C32.5708116,63.687687 31.4291812,63.687687 30.8286933,62.9370771 Z" id="Shape" fill="#FFFFFF" fill-rule="nonzero"></path>
        <path d="M38.0769751,2.47437615 L40.9230249,1.52569285 L48.4230249,24.0256929 C48.5352166,24.3622677 48.5244774,24.7277145 48.392715,25.0571205 L33.392715,62.5571205 L30.607285,61.4429485 L45.40322,24.4531109 L38.0769751,2.47437615 Z" id="Shape" fill="#FFFFFF" fill-rule="nonzero"></path>
        <path d="M33.392715,61.4429485 L30.607285,62.5571205 L15.607285,25.0571205 C15.4755226,24.7277145 15.4647834,24.3622677 15.5769751,24.0256929 L23.0769751,1.52569285 L25.9230249,2.47437615 L18.59678,24.4531109 L33.392715,61.4429485 Z" id="Shape" fill="#FFFFFF" fill-rule="nonzero"></path>
        <polygon id="Shape" fill="#FFFFFF" fill-rule="nonzero" points="62 23.0000345 62 26.0000345 2 26.0000345 2 23.0000345"></polygon>
    </g>
</svg>